<svg width="100" height="124" viewBox="0 0 100 124" fill="none" xmlns="http://www.w3.org/2000/svg">
    <path d="M31.6562 118.1C36.7084 120.133 42.1896 121.34 47.9447 121.541C55.7335 121.813 63.1403 120.202 69.7616 117.143C61.8214 114.024 54.6303 109.461 48.4929 103.79C44.5147 110.159 38.6305 115.19 31.6562 118.1Z" fill="#FF9100" />
    <path d="M48.4943 103.791C34.4847 90.8342 25.9858 72.0806 26.7041 51.5112C26.7274 50.8433 26.7626 50.1757 26.8039 49.5084C24.2948 48.8595 21.6753 48.4635 18.9796 48.3694C15.121 48.2346 11.3843 48.7132 7.85647 49.7066C4.11667 56.2577 1.85982 63.7742 1.57867 71.8254C0.85308 92.6036 13.4273 110.759 31.6575 118.101C38.6319 115.192 44.5158 110.167 48.4943 103.791Z" fill="#FFC400" />
    <path d="M48.4937 103.791C51.7509 98.5782 53.7258 92.4671 53.9557 85.8829C54.5605 68.5638 42.9175 53.6653 26.8033 49.5079C26.762 50.1753 26.7268 50.8428 26.7035 51.5108C25.9852 72.0802 34.484 90.8338 48.4937 103.791Z" fill="#FF9100" />
    <path d="M52.1523 0.825138C42.9747 8.17757 35.7275 17.8724 31.3428 29.0406C28.8325 35.4376 27.255 42.309 26.7944 49.5121C42.9087 53.6694 54.5517 68.568 53.9469 85.8871C53.7169 92.4712 51.7363 98.5762 48.4849 103.795C54.622 109.473 61.8134 114.029 69.7535 117.149C85.691 109.781 96.9986 93.9289 97.6534 75.1785C98.0777 63.0301 93.4101 52.2026 86.8147 43.0633C79.8495 33.3976 52.1523 0.825138 52.1523 0.825138Z" fill="#DD2C00" />
</svg>